<svg width="32" height="32" viewBox="0 0 32 32" fill="none" xmlns="http://www.w3.org/2000/svg">
<g clip-path="url(#clip0_173414_3613)">
<path d="M16.0003 0.138062C11.6324 0.138062 7.8968 1.69112 4.79336 4.79725C1.68991 7.90338 0.138184 11.6422 0.138184 16.0138C0.138184 20.3854 1.68991 24.1243 4.79336 27.2304C7.8968 30.3365 11.6324 31.8896 16.0003 31.8896C20.3681 31.8896 24.1037 30.3365 27.2071 27.2304C30.3106 24.1243 31.8623 20.3854 31.8623 16.0138C31.8623 11.6422 30.3106 7.90338 27.2071 4.79725C24.1037 1.69112 20.3681 0.138062 16.0003 0.138062ZM16.0003 26.8507C13.0117 26.8507 10.46 25.7924 8.34508 23.6756C6.23014 21.5588 5.17267 19.0049 5.17267 16.0138C5.17267 13.0227 6.23014 10.4688 8.34508 8.35204C10.46 6.23527 13.0117 5.17689 16.0003 5.17689C18.9888 5.17689 21.5405 6.23527 23.6554 8.35204C25.7704 10.4688 26.8278 13.0227 26.8278 16.0138C26.8278 19.0049 25.7704 21.5588 23.6554 23.6756C21.5405 25.7924 18.9888 26.8507 16.0003 26.8507Z" fill="#ED2590"/>
</g>
<defs>
<clipPath id="clip0_173414_3613">
<rect width="32" height="32" fill="white"/>
</clipPath>
</defs>
</svg>
