<svg width="32" height="32" viewBox="0 0 32 32" fill="none" xmlns="http://www.w3.org/2000/svg">
<path d="M16 28C22.6274 28 28 22.6274 28 16C28 9.37258 22.6274 4 16 4C9.37258 4 4 9.37258 4 16C4 22.6274 9.37258 28 16 28Z" stroke="#FACF41" stroke-width="1.5" stroke-linecap="round" stroke-linejoin="round"/>
<path d="M11.5 15C12.3284 15 13 14.3284 13 13.5C13 12.6716 12.3284 12 11.5 12C10.6716 12 10 12.6716 10 13.5C10 14.3284 10.6716 15 11.5 15Z" fill="#FACF41"/>
<path d="M20.5 15C21.3284 15 22 14.3284 22 13.5C22 12.6716 21.3284 12 20.5 12C19.6716 12 19 12.6716 19 13.5C19 14.3284 19.6716 15 20.5 15Z" fill="#FACF41"/>
<path d="M21.1993 19C20.6707 19.9107 19.9121 20.6667 18.9995 21.1922C18.087 21.7176 17.0524 21.9942 15.9993 21.9942C14.9463 21.9942 13.9117 21.7176 12.9991 21.1922C12.0865 20.6667 11.328 19.9107 10.7993 19" stroke="#FACF41" stroke-width="1.5" stroke-linecap="round" stroke-linejoin="round"/>
</svg>
