<svg width="32" height="32" viewBox="0 0 32 32" fill="none" xmlns="http://www.w3.org/2000/svg">
<path d="M16.5495 23.8375L22.8495 27.8375C23.662 28.35 24.662 27.5875 24.4245 26.65L22.5995 19.475C22.5502 19.2762 22.558 19.0674 22.6221 18.8728C22.6863 18.6781 22.8041 18.5056 22.962 18.375L28.612 13.6625C29.3495 13.05 28.9745 11.8125 28.012 11.75L20.637 11.275C20.4358 11.2633 20.2423 11.1933 20.0803 11.0734C19.9182 10.9535 19.7946 10.789 19.7245 10.6L16.9745 3.67503C16.9017 3.47491 16.7691 3.30204 16.5947 3.17988C16.4202 3.05772 16.2125 2.99219 15.9995 2.99219C15.7866 2.99219 15.5788 3.05772 15.4043 3.17988C15.2299 3.30204 15.0973 3.47491 15.0245 3.67503L12.2745 10.6C12.2044 10.789 12.0808 10.9535 11.9187 11.0734C11.7567 11.1933 11.5632 11.2633 11.362 11.275L3.98701 11.75C3.02451 11.8125 2.64951 13.05 3.38701 13.6625L9.03701 18.375C9.19493 18.5056 9.31274 18.6781 9.37687 18.8728C9.44101 19.0674 9.44885 19.2762 9.39951 19.475L7.71201 26.125C7.42451 27.25 8.62451 28.1625 9.58701 27.55L15.4495 23.8375C15.6139 23.733 15.8047 23.6775 15.9995 23.6775C16.1943 23.6775 16.3851 23.733 16.5495 23.8375Z" stroke="#FACF41" stroke-width="1.5" stroke-linecap="round" stroke-linejoin="round"/>
</svg>
