<svg width="162" height="77" viewBox="0 0 162 77" fill="none" xmlns="http://www.w3.org/2000/svg">
<g clip-path="url(#clip0_180454_3601)">
<path d="M81 0.138062C76.6322 0.138062 72.8966 1.69112 69.7931 4.79725C66.6897 7.90338 65.1379 11.6422 65.1379 16.0138C65.1379 20.3854 66.6897 24.1243 69.7931 27.2304C72.8966 30.3365 76.6322 31.8896 81 31.8896C85.3678 31.8896 89.1035 30.3365 92.2069 27.2304C95.3104 24.1243 96.8621 20.3854 96.8621 16.0138C96.8621 11.6422 95.3104 7.90338 92.2069 4.79725C89.1035 1.69112 85.3678 0.138062 81 0.138062ZM81 26.8507C78.0115 26.8507 75.4598 25.7924 73.3448 23.6756C71.2299 21.5588 70.1724 19.0049 70.1724 16.0138C70.1724 13.0227 71.2299 10.4688 73.3448 8.35204C75.4598 6.23527 78.0115 5.17689 81 5.17689C83.9885 5.17689 86.5402 6.23527 88.6552 8.35204C90.7701 10.4688 91.8276 13.0227 91.8276 16.0138C91.8276 19.0049 90.7701 21.5588 88.6552 23.6756C86.5402 25.7924 83.9885 26.8507 81 26.8507Z" fill="#ED2590"/>
</g>
<path d="M0.316406 71H3.48047L4.91016 66.6289H11.2031L12.6328 71H15.8086L9.76172 54.0898H6.36328L0.316406 71ZM8.02734 57.1016H8.09766L10.4414 64.2969H5.67188L8.02734 57.1016ZM22.4062 71.2461C25.5469 71.2461 27.6445 69.2773 27.8672 66.6875L27.8789 66.6055H25.125L25.1016 66.7109C24.832 68.0117 23.8945 68.8906 22.418 68.8906C20.5781 68.8906 19.3828 67.3906 19.3828 64.8008V64.7891C19.3828 62.2461 20.5664 60.6875 22.4062 60.6875C23.9531 60.6875 24.8438 61.6602 25.0898 62.8672L25.1133 62.9727H27.8672L27.8555 62.8789C27.6797 60.3945 25.6406 58.3203 22.3711 58.3203C18.75 58.3203 16.4062 60.8047 16.4062 64.7656V64.7773C16.4062 68.7617 18.7148 71.2461 22.4062 71.2461ZM35.0859 71.2461C38.332 71.2461 40.1602 69.3242 40.5469 67.4141L40.582 67.2852H37.8516L37.8281 67.3672C37.5469 68.1992 36.5977 68.9727 35.1445 68.9727C33.2461 68.9727 32.0508 67.6836 32.0039 65.5039H40.6992V64.5664C40.6992 60.8164 38.4961 58.3203 34.9453 58.3203C31.3945 58.3203 29.1094 60.8984 29.1094 64.8125V64.8242C29.1094 68.7734 31.3594 71.2461 35.0859 71.2461ZM34.9805 60.6055C36.5273 60.6055 37.6523 61.5898 37.8633 63.5586H32.0391C32.2734 61.6484 33.4336 60.6055 34.9805 60.6055ZM47.4375 71.2461C50.4844 71.2461 52.6523 69.6758 52.6523 67.332V67.3203C52.6523 65.5156 51.6562 64.5078 49.0898 63.9336L47.0156 63.4766C45.7266 63.1836 45.2461 62.7148 45.2461 62V61.9883C45.2461 61.0742 46.0547 60.4766 47.3438 60.4766C48.7031 60.4766 49.5 61.2031 49.6289 62.1992L49.6406 62.293H52.3594L52.3477 62.1641C52.2422 60.0195 50.4375 58.3203 47.3438 58.3203C44.3438 58.3203 42.3633 59.8555 42.3633 62.1289V62.1406C42.3633 63.9805 43.5586 65.1406 45.9375 65.668L48 66.125C49.2891 66.418 49.7227 66.8398 49.7227 67.5898V67.6016C49.7227 68.5156 48.8672 69.0898 47.4492 69.0898C45.9727 69.0898 45.1641 68.457 44.9414 67.3906L44.918 67.2852H42.0469L42.0586 67.3906C42.3164 69.6992 44.1797 71.2461 47.4375 71.2461ZM59.3672 71.2461C62.4141 71.2461 64.582 69.6758 64.582 67.332V67.3203C64.582 65.5156 63.5859 64.5078 61.0195 63.9336L58.9453 63.4766C57.6562 63.1836 57.1758 62.7148 57.1758 62V61.9883C57.1758 61.0742 57.9844 60.4766 59.2734 60.4766C60.6328 60.4766 61.4297 61.2031 61.5586 62.1992L61.5703 62.293H64.2891L64.2773 62.1641C64.1719 60.0195 62.3672 58.3203 59.2734 58.3203C56.2734 58.3203 54.293 59.8555 54.293 62.1289V62.1406C54.293 63.9805 55.4883 65.1406 57.8672 65.668L59.9297 66.125C61.2188 66.418 61.6523 66.8398 61.6523 67.5898V67.6016C61.6523 68.5156 60.7969 69.0898 59.3789 69.0898C57.9023 69.0898 57.0938 68.457 56.8711 67.3906L56.8477 67.2852H53.9766L53.9883 67.3906C54.2461 69.6992 56.1094 71.2461 59.3672 71.2461ZM71.9062 71.2461C75.1523 71.2461 76.9805 69.3242 77.3672 67.4141L77.4023 67.2852H74.6719L74.6484 67.3672C74.3672 68.1992 73.418 68.9727 71.9648 68.9727C70.0664 68.9727 68.8711 67.6836 68.8242 65.5039H77.5195V64.5664C77.5195 60.8164 75.3164 58.3203 71.7656 58.3203C68.2148 58.3203 65.9297 60.8984 65.9297 64.8125V64.8242C65.9297 68.7734 68.1797 71.2461 71.9062 71.2461ZM71.8008 60.6055C73.3477 60.6055 74.4727 61.5898 74.6836 63.5586H68.8594C69.0938 61.6484 70.2539 60.6055 71.8008 60.6055ZM89.707 71.2461C93.3516 71.2461 95.7188 68.8203 95.7188 64.7891V64.7656C95.7188 60.7578 93.3164 58.3203 89.6953 58.3203C86.0859 58.3203 83.6953 60.7812 83.6953 64.7656V64.7891C83.6953 68.8086 86.0508 71.2461 89.707 71.2461ZM89.7188 68.8906C87.8555 68.8906 86.6719 67.4023 86.6719 64.7891V64.7656C86.6719 62.1875 87.8789 60.6875 89.6953 60.6875C91.5469 60.6875 92.7422 62.1758 92.7422 64.7656V64.7891C92.7422 67.3906 91.5586 68.8906 89.7188 68.8906ZM110.145 71.293C115.09 71.293 118.16 67.9297 118.16 62.5508V62.5273C118.16 57.1602 115.078 53.7969 110.145 53.7969C105.223 53.7969 102.117 57.1602 102.117 62.5273V62.5508C102.117 67.9297 105.199 71.293 110.145 71.293ZM110.145 68.668C107.121 68.668 105.199 66.3125 105.199 62.5508V62.5273C105.199 58.7656 107.133 56.4219 110.145 56.4219C113.168 56.4219 115.09 58.7773 115.09 62.5273V62.5508C115.09 66.2773 113.203 68.668 110.145 68.668ZM120.281 71H123.199V63.793C123.199 61.9531 124.195 60.9102 125.848 60.9102C126.34 60.9102 126.785 60.9805 127.031 61.0742V58.4375C126.809 58.3789 126.469 58.3203 126.105 58.3203C124.676 58.3203 123.645 59.2227 123.258 60.7227H123.199V58.5781H120.281V71ZM128.66 71H131.578V66.6875L132.562 65.6562L136.488 71H139.852L134.73 63.9219L139.652 58.5781H136.277L131.637 63.7344H131.578V54.0898H128.66V71ZM145.207 71.2461C147.082 71.2461 148.359 70.3789 149.004 69.0547H149.062V71H151.98V58.5781H149.062V65.7734C149.062 67.5781 147.996 68.7852 146.32 68.7852C144.656 68.7852 143.836 67.7891 143.836 66.0312V58.5781H140.918V66.6055C140.918 69.4883 142.477 71.2461 145.207 71.2461ZM159 71.2461C159.586 71.2461 160.102 71.1875 160.441 71.1406V68.9492C160.242 68.9609 160.02 68.9961 159.738 68.9961C158.672 68.9961 158.133 68.6094 158.133 67.3906V60.8281H160.441V58.5781H158.133V55.4258H155.168V58.5781H153.41V60.8281H155.168V67.6367C155.168 70.1914 156.398 71.2461 159 71.2461Z" fill="#ED2590"/>
<defs>
<clipPath id="clip0_180454_3601">
<rect width="32" height="32" fill="white" transform="translate(65)"/>
</clipPath>
</defs>
</svg>
